<svg width="34" height="34" viewBox="0 0 34 34" fill="none" xmlns="http://www.w3.org/2000/svg">
<g clip-path="url(#clip0_890_4469)">
<path d="M11.4002 11.3992H22.6002M7.2002 19.7992H11.4002M22.6002 19.7992H26.8002" stroke="#F16B64" stroke-width="2" stroke-linecap="round" stroke-linejoin="round"/>
<path d="M1.60022 27.211V15.8141C1.60057 15.3462 1.69487 14.8832 1.87742 14.4531L5.84549 5.09698C6.10906 4.47461 6.54755 3.9441 7.1066 3.57121C7.66565 3.19831 8.32069 2.99943 8.99051 2.99921H25.0099C25.6796 2.99928 26.3345 3.19791 26.8935 3.57048C27.4525 3.94306 27.8911 4.47321 28.1549 5.09525L32.1247 14.4514C32.3071 14.8826 32.4009 15.3469 32.4002 15.8159V27.211M1.60022 27.211H32.4002M1.60022 27.211V31.3616C1.60022 31.6368 1.70839 31.9007 1.90092 32.0953C2.09346 32.2899 2.3546 32.3992 2.62689 32.3992H9.12911C9.4014 32.3992 9.66253 32.2899 9.85507 32.0953C10.0476 31.9007 10.1558 31.6368 10.1558 31.3616V27.211M1.60022 27.211H10.1558M32.4002 27.211V31.3616C32.4002 31.6368 32.2921 31.9007 32.0995 32.0953C31.907 32.2899 31.6458 32.3992 31.3735 32.3992H24.8713C24.7365 32.3992 24.603 32.3724 24.4784 32.3202C24.3539 32.2681 24.2407 32.1916 24.1454 32.0953C24.05 31.9989 23.9744 31.8845 23.9228 31.7586C23.8712 31.6328 23.8447 31.4978 23.8447 31.3616V27.211M32.4002 27.211H23.8447M10.1558 27.211H23.8447" stroke="#F16B64" stroke-width="2"/>
</g>
<defs>
<clipPath id="clip0_890_4469">
<rect width="33.6" height="33.6" fill="white" transform="translate(0.200195 0.199219)"/>
</clipPath>
</defs>
</svg>
